<svg class="sc-bxivhb ixihEV grana" color="grana" version="1.0" id="logo" xmlns="http://www.w3.org/2000/svg" x="0px" y="0px" width="100%" height="100%" viewBox="0 0 999.6 256.1"><g id="XMLID_167_"><path id="XMLID_168_" d="M401.3,67.8c4.5-8.1,9.1-15.2,13.8-21.3c6.1-1.4,11.5-3.2,16.2-5.4c4.7-2.2,8.5-4.6,11.3-7 c2.8-2.4,4.7-4.8,5.4-7.1c0.7-2.3,0.2-4.2-1.5-5.9c-1.5-1.2-3.3-2-5.4-2.2c-2.1-0.2-4.3-0.2-6.5,0.1c-2.2,0.3-4.5,0.8-6.7,1.5 c-2.2,0.7-4.2,1.4-5.9,2.1c-4.8,2.1-9.5,4.7-13.9,7.9c-4.5,3.2-8.8,6.8-13,10.9c-4.5,1.1-9.7,2-15.8,2.6c-6.1,0.6-12.5,1.3-19.3,2 c-6.8,0.7-13.7,1.8-20.6,3.1c-6.9,1.3-13.5,3.1-19.7,5.5c-6.2,2.4-11.8,5.4-16.7,9.1c-5,3.7-8.7,8.4-11.3,14.1 c-3.1,6.8-4.2,13.3-3.3,19.4c0.9,6.1,3,11.6,6.3,16.3c3.3,4.7,7.6,8.4,12.8,11.2c5.2,2.7,10.7,4.1,16.4,4.1l5.4-6 c-3.2-1-6-2.7-8.5-5.1c-2.4-2.4-4.2-5.3-5.3-8.7c-1.1-3.4-1.4-7.2-0.9-11.4c0.5-4.2,2-8.6,4.6-13.2c3-5.1,7.1-9.5,12.4-13.2 c5.3-3.7,11-6.9,17.2-9.5c6.2-2.6,12.6-4.7,19.2-6.4c6.6-1.7,12.7-3.1,18.3-4.2c-7.7,9-14.8,19.1-21.5,30.3 c-6.6,11.2-13,22.5-19,34c-6,11.5-11.8,22.8-17.4,33.8c-5.6,11-11.1,20.9-16.5,29.6c-5.4,8.7-10.8,15.7-16.3,21.2 c-5.5,5.5-11,8.4-16.7,8.7c-6.7,0.5-11.9-1-15.5-4.6c-3.7-3.6-5.9-8.1-6.8-13.6c-0.9-5.5-0.3-11.3,1.7-17.7c2-6.3,5.3-12,9.9-16.9 c-0.5,3.6,0,6.5,1.6,8.7c1.5,2.2,4.1,3.2,7.5,3c3.6-0.3,6.9-1.3,9.8-3.1c2.9-1.8,5.4-4,7.3-6.5c2-2.5,3.4-5.3,4.3-8.2 c0.9-2.9,1.1-5.5,0.6-7.9c-0.4-2.4-1.6-4.3-3.5-5.8c-1.9-1.5-4.7-2.1-8.3-1.9c-7.4,0.5-14.1,3.1-19.9,7.7 c-5.8,4.7-10.5,10.2-14.1,16.7c-3.6,6.5-5.9,13.5-6.9,20.9c-1,7.4-0.4,14.2,1.9,20.3c2.2,6.1,6.3,11,12.1,14.8 c5.8,3.8,13.8,5.3,24,4.6c8.1-0.6,15.6-2.9,22.6-6.8c7-3.9,13.6-9,19.7-15.3c6.1-6.3,11.9-13.6,17.4-21.8 c5.5-8.2,10.7-16.8,15.6-25.9c5-9.1,9.8-18.5,14.4-28.1c4.6-9.6,9.2-18.9,13.7-28C392.3,84.5,396.8,75.9,401.3,67.8z"></path><path id="XMLID_170_" d="M849.3,84.5c3.1,0,5.8-1.1,8-3.3c2.2-2.2,3.3-4.9,3.3-8c0-3.1-1.1-5.8-3.3-8c-2.2-2.2-4.9-3.3-8-3.3 c-3.2,0-5.9,1.1-8.2,3.3c-2.2,2.2-3.3,4.9-3.3,8c0,3.1,1.1,5.8,3.3,8C843.4,83.3,846.1,84.5,849.3,84.5z"></path><path id="XMLID_183_" d="M975.2,126.9c-0.8-0.5-2-0.5-3.7,0c-1.6,0.5-3.5,1.8-5.7,3.8c-3.6,3.6-7.3,7.2-11.1,10.8 c-3.8,3.6-7.6,6.7-11.4,9.2c0.9-2.9,2.5-7.3,4.7-13.4c2.3-6,4.5-12.2,6.6-18.5c2.5-7.2,5.3-15.1,8.4-23.5h-19.5V95 c-0.7,1.8-1.8,4.5-3.2,8c-1.4,3.5-3.2,7.4-5.1,11.8c-2,4.3-4.1,8.8-6.2,13.3c-2.2,4.5-4.4,8.6-6.6,12.3c-2.3,3.7-4.4,6.7-6.4,9.1 c-2,2.3-3.8,3.5-5.4,3.5c-2,0-2.9-1.3-2.7-4.1c0.2-2.7,0.9-6,2-10c1.2-4,2.7-8.1,4.5-12.4c1.8-4.3,3.4-8.1,4.9-11.4 c0.9-2,2-4.1,3.2-6.5c1.3-2.3,2.4-4.5,3.5-6.5c1.3-2.3,2.5-4.7,3.8-7h-19.5c-1.4,2-2.9,4.2-4.3,6.5c-1.3,2-2.7,4.5-4.2,7.4 c-1.5,3-3.1,6.3-4.7,9.9c-2.9,6.3-5,12.2-6.5,17.6c-0.4,1.4-0.7,2.7-0.9,4c-1.5,2.6-3.2,4.6-5.2,6.1c-2.5,1.9-4.8,3-7,3.3 c-2.2,0.4-3.9,0.1-5.1-0.9c-1.2-1-1.4-2.7-0.4-5l23.2-56.5h15.2l5.2-9.5h-16.7l4.1-9.9l-22.3,4.3l-2.2,5.6h-9.3l-5.2,9.5h10.6 l-21.4,51.7c-1.6,3.2-3.6,5.7-5.9,7.4c-2.5,1.9-4.8,3-7,3.4c-2.2,0.4-3.9,0.2-5.1-0.8c-1.2-1-1.4-2.7-0.4-5.2 c1.6-4,3.2-7.8,4.7-11.5c1.4-3.2,2.7-6.4,4-9.7c1.3-3.2,2.3-5.8,3.1-7.6c3.3-8.2,4.1-14.2,2.4-18.1c-1.7-3.9-6.1-5.9-13.2-5.9 c-1.2,0-2.5,0.1-3.6,0.2c-1.2,0.1-2.3,0.3-3.3,0.6c-1.1,0.2-2.2,0.5-3.2,0.7l-3.9,8h1.9c2.8,0,4.6,0.8,5.4,2.3 c0.7,1.5,0.6,3.6-0.4,6c-0.6,1.4-1.5,3.5-2.7,6.5c-1.2,3-2.4,6.1-3.8,9.5c-1.4,3.3-2.7,6.5-4,9.6c-0.8,2-1.5,3.6-2.1,4.9 c-1.3,1.8-2.8,3.6-4.7,5.3c-2.1,1.9-4.4,3.6-7,5c-2.5,1.4-5.2,2.6-8,3.4c-2.8,0.9-5.5,1.3-8.1,1.3c-6.7,0-11.2-2.2-13.6-6.5 c-2.4-4.3-1.9-11,1.5-19.9c1.2-3.5,2.8-6.9,4.6-10.3c1.8-3.4,3.8-6.5,6-9.2c2.2-2.7,4.4-5,6.8-6.7c2.4-1.7,4.8-2.6,7.3-2.6 c2.5,0,4.2,0.8,5.3,2.4c1.1,1.6,1.4,3.7,1,6.1c-0.2-0.1-0.6-0.2-1-0.2h-1.2c-3.7,0-7.1,1.2-10.1,3.7c-3,2.5-5.5,6-7.3,10.6 c-1.5,4-1.7,7.3-0.6,10c1.1,2.7,3.3,4.1,6.8,4.1c0.9,0,2-0.2,3.4-0.7c1.4-0.4,2.9-1.2,4.6-2.4c1.6-1.2,3.3-2.8,5-4.7 c1.7-2,3.4-4.5,5-7.6c1.7-3.3,2.9-6.8,3.4-10.3c0.6-3.5,0.4-6.7-0.5-9.6c-0.9-2.9-2.5-5.2-4.8-7c-2.4-1.8-5.5-2.7-9.5-2.7 c-9.5,0-18.2,3.1-26,9.4c-7.8,6.3-14.1,15.4-19,27.4c-1.5,3.8-2.4,7.4-2.7,10.9c-1.6,3.3-3.6,5.8-6.1,7.7c-2.5,1.9-4.8,3-7,3.3 c-2.2,0.4-3.9,0.1-5.1-0.9c-1.2-1-1.4-2.7-0.4-5c0.5-1.1,1.3-3,2.3-5.6c1.1-2.6,2.2-5.4,3.4-8.4c1.2-3,2.4-5.9,3.5-8.6 c1.1-2.8,2-5,2.6-6.6c3.2-7.8,3.7-13.7,1.3-17.7c-2.3-4-6.6-5.9-12.6-5.9c-3.6,0-7.2,0.8-10.8,2.3c-3.6,1.6-6.9,3.7-9.8,6.4 c-0.9-5.8-5.5-8.7-13.9-8.7c-1.2,0-2.4,0.1-3.6,0.2c-1.2,0.1-2.3,0.3-3.3,0.6c-1.1,0.2-2.2,0.5-3.2,0.7l-3.7,8h1.9 c2.9,0,4.6,0.8,5.4,2.3c0.7,1.5,0.6,3.6-0.6,6l-12.4,30.2c-1.3,2-2.9,3.8-4.9,5.6c-2.1,1.9-4.4,3.6-7,5c-2.5,1.4-5.2,2.6-8,3.4 c-2.8,0.9-5.5,1.3-8.1,1.3c-5.8,0-10.1-1.8-12.9-5.5c-2.8-3.7-3.4-8.3-1.8-13.8h11.9c7.3,0,13.8-2.3,19.3-6.9 c4-3.3,6.9-7.2,8.8-11.4c1.9-4.3,2.7-8.3,2.4-12.1c-0.3-3.8-1.8-7-4.4-9.7c-2.6-2.7-6.4-4-11.5-4c-9.5,0-18.2,3.1-26.1,9.4 c-7.9,6.3-14.2,15.4-18.9,27.4c-1.5,3.8-2.4,7.4-2.7,10.9c-1.6,3.3-3.6,5.8-6.1,7.7c-2.5,1.9-4.8,3-7,3.3c-2.2,0.4-3.9,0.1-5.1-0.9 c-1.2-1-1.4-2.7-0.4-5l21.2-51.3h-20.6l-20.1,48.7c-0.2,0.5-0.4,0.9-0.6,1.3c-0.1,0.4-0.2,0.8-0.4,1.3c-1.9,2.1-3.8,3.7-5.9,4.7 c-2.1,1.1-4,1.6-5.6,1.6c-1.6,0-2.8-0.5-3.6-1.6c-0.8-1-0.8-2.6-0.1-4.7c1.6-4,3.2-7.8,4.6-11.5c1.4-3.2,2.7-6.4,4-9.7 c1.3-3.2,2.3-5.8,3.1-7.6c3.5-8.2,4.3-14.2,2.6-18.1c-1.7-3.9-6.1-5.9-13.2-5.9c-1.4,0-2.6,0.1-3.8,0.2c-1.2,0.1-2.3,0.3-3.3,0.6 c-1.1,0.2-2.2,0.5-3.2,0.7l-3.7,8h1.9c2.8,0,4.6,0.8,5.4,2.3c0.7,1.6,0.6,3.6-0.6,6c-0.6,1.4-1.5,3.5-2.7,6.5 c-1.2,3-2.4,6.1-3.8,9.5c-1.4,3.3-2.7,6.5-4,9.6c-1,2.4-1.8,4.2-2.4,5.7c-1.6,2.6-3.4,4.7-5.5,6.3c-2.5,1.9-4.8,3-6.9,3.4 c-2.1,0.4-3.8,0.2-5-0.8c-1.2-1-1.4-2.7-0.4-5.2c3.8-9.5,7.4-18.3,10.6-26.2c1.4-3.3,2.8-6.7,4.2-10.1c1.4-3.4,2.7-6.6,3.9-9.5 c1.2-2.9,2.2-5.4,3.1-7.5c0.9-2.1,1.5-3.7,1.9-4.7c3.5-8.3,4.3-14.4,2.6-18.2c-1.7-3.8-6.1-5.8-13.2-5.8c-1.4,0-2.6,0.1-3.7,0.2 c-1.1,0.1-2.2,0.3-3.2,0.6c-1.1,0.2-2.2,0.4-3.2,0.6l-3.9,8h1.9c2.8,0,4.6,0.8,5.4,2.3c0.7,1.6,0.6,3.6-0.6,6 c-0.4,0.9-1.2,2.9-2.5,5.9c-1.3,3.1-2.8,6.8-4.6,11.1c-1.7,4.3-3.6,8.8-5.6,13.7c-2,4.8-3.8,9.4-5.6,13.7c-1.7,4.3-3.3,8-4.7,11.2 c-1.4,3.2-2.2,5.2-2.6,6.2c-0.1,0.2-0.1,0.3-0.2,0.5c-0.3,0.1-0.7,0.1-1,0.2c-1.5,0.5-3.3,1.6-5.5,3.5c-4.2,3.9-7.3,6.4-9.3,7.6 c-2.1,1.2-3.9,1.3-5.6,0.2c-2.9-1.5-4.6-3.9-5.1-7.1c-0.5-3.2-0.1-6.7,1-10.3l0.9-2.3c7.8-8.4,18.4-22.2,24-29.1 c5.6-6.9,9.7-14.5,12.5-19.9c2.8-5.4,4.2-10,4.1-13.8c-0.1-3.8-2.1-6.9-5.8-9.1c-6-3.5-12-3.5-18.1,0.2 c-6.1,3.7-11.3,10.4-15.7,20.2c-1.3,2.9-3.2,7.4-5.6,13.5l-21.1,49.5c-0.5,0.5-1.1,1-1.7,1.4c-2.5,1.9-4.8,3-7,3.3 c-2.2,0.4-3.9,0.1-5.1-0.9c-1.2-1-1.4-2.7-0.4-5c0.5-1.1,1.3-3,2.3-5.6c1.1-2.6,2.2-5.4,3.4-8.4c1.2-3,2.4-5.9,3.5-8.7 c1.1-2.8,2-5,2.6-6.6c3.2-7.8,3.7-13.7,1.3-17.7c-2.4-4-6.6-6-12.6-6c-3.6,0-7.2,0.8-10.8,2.3c-3.6,1.5-6.9,3.7-9.9,6.4 c-0.9-5.8-5.5-8.7-13.9-8.7c-1.2,0-2.4,0.1-3.6,0.2c-1.2,0.1-2.3,0.3-3.3,0.6c-1.1,0.2-2.2,0.5-3.2,0.7l-3.7,8h1.9 c2.8,0,4.6,0.8,5.4,2.3c0.7,1.6,0.6,3.6-0.6,6l-13.2,32.2c-0.9,2.2-1.6,4.2-2.1,6.1c-1.4,5.1-1.5,9.1-0.2,11.9 c1.8,3.8,6.2,5.8,13.3,5.8c2.7,0,5-0.2,6.9-0.6c1.1-0.2,2.2-0.5,3.2-0.7l3.7-8H410c-2.9,0-4.6-0.7-5.4-2.2 c-0.7-1.5-0.6-3.5,0.4-6.1c0.4-1,1.1-2.8,2.3-5.6c1.2-2.7,2.4-5.7,3.7-9c1.3-3.3,2.6-6.5,4-9.8c1.4-3.2,2.4-5.8,3.2-7.8 c0.2-0.6,0.5-1.2,0.7-1.9c0.2-0.6,0.4-1.2,0.7-1.9c1.9-1.9,3.8-3.2,5.9-4c2-0.8,3.8-1.2,5.3-1.1c1.5,0.1,2.6,0.6,3.3,1.7 c0.7,1.1,0.7,2.5-0.1,4.4l-12.1,29c-1.6,3.8-2.5,7.3-2.6,10.2c-0.1,3,0.4,5.5,1.5,7.4c1.1,2,2.8,3.5,4.9,4.5c2.2,1,4.7,1.5,7.7,1.5 c3,0,6-0.6,9-1.7c2.5-0.9,4.8-2.1,7-3.5L429.5,206h21.1l19.2-47.8c1.2,2,3.9,5.5,6.3,6.3c3.8,1.5,7.5,1.6,11.1,0.2 c3.6-1.4,7-3.3,10-5.6c2.1-1.6,4.2-3.6,6.2-5.8c0.1,2.2,0.6,4.2,1.5,5.7c1.1,2,2.8,3.5,4.9,4.5c2.2,1,4.7,1.5,7.7,1.5 c3,0,6-0.6,9-1.7c3-1.1,5.9-2.6,8.5-4.5c1.9-1.3,3.7-2.9,5.4-4.6c0.2,1.8,0.6,3.4,1.3,4.8c1.1,2,2.7,3.5,4.8,4.5 c2.2,1,4.7,1.5,7.7,1.5c3.7,0,7.5-0.9,11.4-2.6c3.9-1.7,7.4-4.1,10.5-7.1c0.6,3.2,2.1,5.6,4.5,7.3c2.4,1.6,5.5,2.4,9.3,2.4 c3,0,6-0.6,9-1.7c3-1.1,5.9-2.6,8.6-4.5c2.7-1.9,5.1-4.1,7.2-6.6c1-1.1,1.8-2.3,2.6-3.6c0.5,2,1.3,3.8,2.3,5.5c2,3.3,4.8,6,8.5,7.9 c3.7,1.9,8.1,2.9,13.3,2.9c10,0,18.8-1.9,26.4-5.6c3.2-1.6,6-3.5,8.5-5.6c-0.1,2.1,0.2,3.9,0.9,5.4c1.8,3.8,6.2,5.8,13.3,5.8 c2.7,0,5-0.2,6.9-0.6c1.1-0.3,2.2-0.5,3.2-0.7l3.7-8h-1.9c-2.9,0-4.7-0.7-5.4-2.2c-0.7-1.5-0.6-3.5,0.4-6.1c0.4-1,1.1-2.8,2.3-5.6 c1.2-2.7,2.4-5.7,3.7-9c1.3-3.3,2.6-6.5,4-9.8c1.4-3.2,2.4-5.8,3.2-7.8c0.2-0.6,0.5-1.2,0.7-1.9c0.2-0.6,0.4-1.2,0.7-1.9 c1.9-1.9,3.8-3.2,5.9-4c2-0.8,3.8-1.2,5.3-1.1c1.5,0.1,2.6,0.6,3.3,1.7c0.7,1.1,0.7,2.5-0.1,4.4l-12.1,29 c-1.6,3.8-2.5,7.3-2.6,10.2c-0.1,3,0.4,5.5,1.5,7.4c1.1,2,2.8,3.5,4.9,4.5c2.2,1,4.7,1.5,7.7,1.5c3,0,6-0.6,9-1.7 c3-1.1,5.9-2.6,8.6-4.5c2.7-1.9,5.1-4.1,7.2-6.6c1-1.1,1.8-2.3,2.6-3.6c0.5,2,1.3,3.8,2.3,5.5c2,3.3,4.8,6,8.5,7.9 c3.7,1.9,8.1,2.9,13.3,2.9c10.2,0,19-1.9,26.5-5.6c3.3-1.6,6.2-3.6,8.7-5.8c0.1,2.1,0.6,3.9,1.5,5.4c2.4,4,6.6,5.9,12.6,5.9 c3,0,6-0.6,9-1.7c3-1.1,5.9-2.6,8.6-4.5c2-1.4,3.8-3,5.5-4.7c0.2,1.9,0.6,3.5,1.4,4.9c1.1,2,2.8,3.5,4.9,4.5c2.2,1,4.7,1.5,7.7,1.5 c3,0,6-0.6,9-1.7c3-1.1,5.9-2.6,8.6-4.5c2.7-1.9,5.1-4.1,7.2-6.6c0.3-0.3,0.5-0.6,0.7-0.9c0.6,3.7,2.2,6.8,4.6,9.1 c2.6,2.4,6.5,3.7,11.8,3.9c4.1,0.2,8.4-1.7,12.7-5.7l-3.5,8.1c-10.6,0-18.8,1.6-24.3,4.7c-5.6,3.2-9.2,6.8-10.7,10.8 c-1.5,4.1-1.1,7.9,1.4,11.6c2.4,3.7,6.4,6,12,6.9c6,1.1,11.3,0.7,16-1.2c4.7-1.9,8.8-4.6,12.3-8.2c3.5-3.6,6.6-7.8,9.3-12.7 c2.7-4.9,5.1-9.8,7.3-14.9c5.2-2.9,10.8-6.5,16.6-10.8c5.9-4.3,12.2-10.6,19.1-18.9c1.3-1.6,2-3.1,2.2-4.3 C976.3,128.4,976,127.5,975.2,126.9z M645.1,118.1c1.8-3.2,3.6-6.1,5.3-8.7c1.7-2.6,3.4-4.8,5.1-6.5c1.7-1.7,3.1-2.9,4.4-3.3 c1.9-0.7,3.2-0.7,3.9,0.1c0.7,0.8,1.1,2.1,0.9,3.8c-0.1,1.7-0.6,3.8-1.5,6.3c-0.9,2.5-2,5.1-3.5,7.8c-1.7,3.6-3.6,6.3-5.6,8 c-2,1.7-4.4,2.6-7.3,2.6h-6.5C641.7,124.7,643.3,121.3,645.1,118.1z M502.5,79.7c3.1-6.2,6.6-8.6,9.4-7.3c1,0.6,1.1,1.9,0.4,3.9 c-0.8,2.1-2.1,4.6-4.1,7.6c-1.9,3-4.3,6.2-6.9,9.8c-2.7,3.6-6.1,7.1-9,10.7C496,94.1,499.4,85.9,502.5,79.7z M901.4,188.9 c-2.7,2.5-5.6,3.2-8.7,2.2c-1.4-0.7-2.2-1.8-2.2-3.2c0-1.4,0.7-3,2.2-4.6c1.4-1.6,3.7-3.1,6.6-4.5c3-1.4,6.6-2.3,11-2.8 C907.1,182,904.1,186.4,901.4,188.9z"></path><path id="XMLID_188_" d="M212.5,138.9h-64.9l8.9-21.6h26c0.1,0,0.2,0,0.3,0c16.9,0,30.6-13.7,30.6-30.6c0-16.9-13.7-30.6-30.6-30.6 h0c-12.2,0-23,7.1-28,18.2c-0.2,0.3-0.3,0.6-0.4,0.9l-10,24.2h-20.3l31.7-76.9c1.9-4.6-0.3-9.9-4.9-11.8c-4.6-1.9-9.9,0.3-11.8,4.9 l-34.6,83.8H32.4c-5,0-9,4-9,9s4,9,9,9h64.9l-8.9,21.6h-26c-0.1,0-0.2,0-0.3,0c-16.9,0-30.6,13.7-30.6,30.6 c0,16.9,13.7,30.6,30.6,30.6h0c12.3,0,23.3-7.3,28.1-18.6c0.1-0.2,0.2-0.3,0.3-0.5l10-24.2h20.3L89,233.8 c-1.9,4.6,0.3,9.9,4.9,11.8c1.1,0.5,2.3,0.7,3.4,0.7c3.5,0,6.9-2.1,8.3-5.6l34.6-83.8h72.3c5,0,9-4,9-9 C221.5,142.9,217.5,138.9,212.5,138.9z M170.9,82.3c0.1-0.2,0.2-0.3,0.2-0.5c1.9-4.8,6.5-7.9,11.7-7.9c7,0,12.6,5.7,12.6,12.6 c0,6.9-5.6,12.5-12.5,12.6c-0.1,0-0.1,0-0.2,0H164L170.9,82.3z M74,173.8c-0.1,0.2-0.2,0.3-0.2,0.5c-1.9,4.8-6.5,7.9-11.7,7.9 c-7,0-12.6-5.7-12.6-12.6c0-6.9,5.6-12.5,12.5-12.6c0.1,0,0.1,0,0.2,0H81L74,173.8z M128.2,138.9h-20.3l8.9-21.6h20.3L128.2,138.9z "></path></g></svg>